# xmcd
# 
# Track frame offsets:
#     150
#     18203
#     36253
#     49204
#     75580
#     93486
#     111639
#     130346
#     153319
#     172628
#     192325
#     211735
# 
# Disc length: 3185
# 
# Revision: 0
# Processed by: cddbd v1.5.2PL0 Copyright (c) Steve Scherf et al.
# Submitted via: fre:ac v1.0.31
# 
DISCID=960c6f0c
DTITLE=Joseph Arthur - Lou
DYEAR=2014
DGENRE=Folk/Rock
TTITLE0=Walk On The Wild Side
TTITLE1=Sword Of Damocles
TTITLE2=Stephanie Says
TTITLE3=Heroin
TTITLE4=NYC Man
TTITLE5=Satellite Of Love
TTITLE6=Dirty Blvd
TTITLE7=Pale Blue Eyes
TTITLE8=Magis And Loss
TTITLE9=Men Of Good Fortune
TTITLE10=Wild Child
TTITLE11=Coney Island Baby
EXTD=Reprises Lou Reed
EXTT0=
EXTT1=
EXTT2=
EXTT3=
EXTT4=
EXTT5=
EXTT6=
EXTT7=
EXTT8=
EXTT9=
EXTT10=
EXTT11=
PLAYORDER=
